<?xml version="1.0" encoding="UTF-8"?>
<svg version="1.1" viewBox="0 0 2666.7 2666.7" xmlns="http://www.w3.org/2000/svg">
<g transform="matrix(1.3333 0 0 -1.3333 0 2666.7)">
<g transform="scale(.1)">
<path d="m14309 14309c-1102.7 1102.8-2626.1 1784.8-4308.9 1784.8-1682.7 0-3206.2-682-4308.9-1784.8-1102.7-1102.7-1784.8-2626.1-1784.8-4308.9s682.05-3206.2 1784.8-4308.9c1102.7-1102.8 2626.2-1784.8 4308.9-1784.8 1682.8 0 3206.2 682 4308.9 1784.8 1102.7 1102.7 1784.8 2626.1 1784.8 4308.9s-682.1 3206.2-1784.8 4308.9zm-1134.2-7867.5c-79.4 78.9-799.1 497.6-851.7 563.9 81.2 129.9 190.5 258.8 279.5 381.2l268 372.8c95.6-32 332.1-193.7 426.9-252.5 99-61.4 317-208.4 407.1-243.4 83.4 125.5 57.8 421.7 6.6 563.1-60.1 165.8-166 275.8-279.6 362.8-306.3 234.5-605.2 247.9-995.9 103.9-66.2 38.8-275.3 264.1-349.1 336.8-116.8 114.8-222.4 219.7-337.2 336.4l-677 682c23.8 105.4 75.7 181.9 96 315.6 90.1 590.9-513.4 987.6-940.7 1025.6-226.6 20.3-500.08-66.3-608.27-193.4 105.36-119 746.47-465.8 810.57-570-74.3-72.3-185.3-281.6-254.8-380.8l-252.97-375.6c-1.17 2.6-5.58-5.3-10.28-10.6l-824.04 502.3c-139.35-418.1 72.78-754.9 284.13-929.1 121.56-100.2 250.09-167.7 451.09-186 235.07-21.5 337.87 38.2 532.17 89.2l1374.5-1363.6c-31.8-112.9-72.8-175.3-92.8-315.5-105.2-736.6 772.4-1160.2 1295.4-967.1 72 26.6 197.4 88.3 242.4 152zm-6912.6 3350.1 719.56-0.5c64.19-168.6 308.45-692.9 331.58-813.6l-499.11-499.6c37.28-67.6 340.04-342.2 421.39-422.4l417.59-426.9c65.14 27.7 478.11 422.1 516.32 495.2l811.7-341.5 12.94-725.1c139.47-14.1 846.81-2.9 1091.8-3.1 160.6-0.1 122.9-10.2 137.2 29.6l4.7 700.7 724 291-443 431.1c-252-76.5-418.9-186.4-736.26-198-819.86-30-1442.7 243.6-1884.4 885.4-887.86 1290.1-155.45 3114.5 1492.8 3294.6 635.02 69.5 1048.9-85.7 1438.3-379.1 325.2-245 630.7-555.5 784.1-1064.7 197.1-653.9 98.2-980.2-102.8-1546.5l375-389.6c40-37.4 10.5-19.6 64.8-42.8l273.9 734.4 738.6 0.4 0.4 1218.5-722.9-0.8-324 811.9c80.2 73.1 407.3 444.2 486.8 506.1l-829.2 859.5c-80-45.3-456.8-411.2-517.2-492.8-83.6 10.3-728 276.1-829.2 327.1l-0.5 727.2-1221.6-6.6-1.59-715.7-818.99-314.1c-85.15 62.2-462.49 448.3-516.95 472l-851.8-865.9 505.89-498.4-331.58-799.8-723.29-6.5c-25.39-84.2-11.89-500.5-10.37-617.6 0.91-70-19.82-555.3 15.46-613.1zm3737.8 6679.6c1786.9 0 3404.7-724.3 4575.7-1895.3 1171.1-1171.1 1895.4-2788.9 1895.4-4575.8s-724.3-3404.7-1895.4-4575.8c-1171-1171-2788.8-1895.3-4575.7-1895.3-1786.9 0-3404.7 724.3-4575.7 1895.3-1171.1 1171.1-1895.4 2788.9-1895.4 4575.8s724.33 3404.7 1895.4 4575.8c1171 1171 2788.8 1895.3 4575.7 1895.3" fill="#100f0e" fill-rule="evenodd"/>
</g>
</g>
</svg>
